<svg width='200' height='200' fill="#000000" xmlns="http://www.w3.org/2000/svg" xmlns:xlink="http://www.w3.org/1999/xlink" version="1.1" x="0px" y="0px" viewBox="0 0 100 100" enable-background="new 0 0 100 100" xml:space="preserve"><path fill="#000000" d="M83.068,55.372v-4.455h8.604c0.783,0,1.418-0.635,1.418-1.418c0-0.782-0.635-1.417-1.418-1.417h-8.604  v-4.458c0-4.458-3.627-8.086-8.086-8.086H24.018c-4.459,0-8.084,3.628-8.084,8.086v4.458H7.326c-0.781,0-1.416,0.635-1.416,1.417  c0,0.783,0.635,1.418,1.416,1.418h8.607v4.455c0,4.459,3.625,8.087,8.084,8.087h5.07c0.01,0,0.016,0.003,0.025,0.003  c0.008,0,0.016-0.003,0.023-0.003h40.729c0.01,0,0.016,0.003,0.025,0.003c0.008,0,0.016-0.003,0.023-0.003h5.068  C79.441,63.459,83.068,59.831,83.068,55.372z M27.695,60.624h-3.678c-2.895,0-5.25-2.355-5.25-5.252V43.624  c0-2.896,2.355-5.251,5.25-5.251h3.678V60.624z M68.473,60.624H30.529V38.373h37.943V60.624z M80.232,55.372  c0,2.896-2.355,5.252-5.25,5.252h-3.676V38.373h3.676c2.895,0,5.25,2.355,5.25,5.251V55.372z"></path></svg>