<svg xmlns="http://www.w3.org/2000/svg" viewBox="0 0 120 128">
  <defs>
    <style>
      .cls-1 {
        fill: #333333;
      }

      .cls-2 {
        fill: none;
        stroke: #333333;
        stroke-linecap: round;
        stroke-linejoin: round;
        stroke-width: 4px;
      }
    </style>
  </defs>
  <title>fuse3</title>
  <g id="Layer_2" data-name="Layer 2">
    <g>
      <path class="cls-1" d="M94,51.73c0-4-5-7.76-12.63-10.1,1.76-7.79,1-14-2.47-16A5.35,5.35,0,0,0,76.15,25v2.74a3,3,0,0,1,1.4.31c1.66,1,2.39,4.6,1.82,9.28a36.26,36.26,0,0,1-.62,3.6A59.9,59.9,0,0,0,71,39.56a59.45,59.45,0,0,0-5.1-6.12c4-3.71,7.75-5.75,10.29-5.75V25h0c-3.37,0-7.78,2.4-12.23,6.57C59.47,27.39,55.06,25,51.69,25v2.73c2.53,0,6.29,2,10.29,5.71a57.86,57.86,0,0,0-5.06,6.11,58.09,58.09,0,0,0-7.79,1.35c-.28-1.22-.49-2.41-.64-3.55-.58-4.68.13-8.32,1.79-9.29a2.73,2.73,0,0,1,1.41-.32V25h0a5.43,5.43,0,0,0-2.77.69c-3.44,2-4.22,8.17-2.44,15.94C38.86,44,33.9,47.76,33.9,51.73s5,7.75,12.63,10.09c-1.76,7.79-1,14,2.47,16a5.46,5.46,0,0,0,2.76.68c3.37,0,7.78-2.4,12.24-6.56,4.46,4.14,8.87,6.51,12.24,6.51A5.52,5.52,0,0,0,79,77.75c3.44-2,4.21-8.17,2.43-15.94C89,59.47,94,55.7,94,51.73Zm-16-8.17c-.45,1.58-1,3.21-1.65,4.84-.51-1-1-2-1.61-2.94S73.63,43.52,73,42.59C74.77,42.85,76.45,43.17,78.05,43.56Zm-5.61,13c-1,1.66-1.94,3.23-3,4.68-1.83.16-3.68.25-5.54.25s-3.7-.09-5.51-.23c-1-1.46-2-3-3-4.66s-1.77-3.23-2.55-4.87c.76-1.65,1.62-3.29,2.54-4.89s1.94-3.22,2.95-4.68C60.24,42,62.09,42,64,42s3.7.09,5.51.24c1,1.45,2,3,3,4.65S74.2,50.07,75,51.72C74.2,53.36,73.36,55,72.44,56.6Zm4-1.59c.66,1.64,1.22,3.28,1.69,4.88-1.61.39-3.3.72-5,1,.6-.95,1.2-1.91,1.76-2.91S75.89,56,76.4,55ZM64,68.08a50.72,50.72,0,0,1-3.4-3.92c1.1,0,2.23.09,3.37.09s2.29,0,3.4-.09A44.82,44.82,0,0,1,64,68.08Zm-9.11-7.21c-1.74-.26-3.42-.58-5-1,.45-1.58,1-3.21,1.65-4.84.5,1,1,2,1.61,2.94S54.26,59.94,54.86,60.87Zm9-25.5q1.71,1.77,3.41,3.92c-1.1,0-2.23-.08-3.37-.08s-2.29,0-3.41.08C61.65,37.86,62.79,36.55,63.91,35.37Zm-9.06,7.22c-.6.94-1.2,1.91-1.77,2.9s-1.09,2-1.59,2.94c-.66-1.64-1.22-3.28-1.69-4.87C51.41,43.18,53.1,42.85,54.85,42.59ZM43.76,57.93c-4.34-1.85-7.14-4.28-7.14-6.2s2.8-4.36,7.14-6.2c1.06-.45,2.21-.86,3.39-1.24a59.07,59.07,0,0,0,2.76,7.46,58.28,58.28,0,0,0-2.72,7.43C46,58.8,44.83,58.38,43.76,57.93Zm6.59,17.5c-1.66-1-2.39-4.59-1.82-9.27a35.77,35.77,0,0,1,.62-3.6,58.29,58.29,0,0,0,7.78,1.33A58.55,58.55,0,0,0,62,70c-4,3.71-7.75,5.74-10.29,5.74A2.91,2.91,0,0,1,50.35,75.43ZM79.41,66.1c.58,4.68-.13,8.32-1.79,9.28a2.73,2.73,0,0,1-1.41.32c-2.53,0-6.29-2-10.29-5.71A56.86,56.86,0,0,0,71,63.88a56.54,56.54,0,0,0,7.79-1.35A33.73,33.73,0,0,1,79.41,66.1Zm4.72-8.17c-1.06.45-2.21.85-3.4,1.23A59,59,0,0,0,78,51.7a59.15,59.15,0,0,0,2.72-7.42c1.21.38,2.36.8,3.44,1.25,4.34,1.85,7.14,4.28,7.14,6.2S88.46,56.09,84.13,57.93Z" transform="translate(-4)"/>
      <path class="cls-1" d="M51.68,25Z" transform="translate(-4)"/>
      <circle class="cls-1" cx="59.94" cy="51.73" r="5.6"/>
      <path class="cls-1" d="M76.14,25Z" transform="translate(-4)"/>
    </g>
  </g>
  <g id="Layer_1" data-name="Layer 1">
    <polygon class="cls-2" points="118 2 118 72 110 84 10 84 2 72 2 2 118 2"/>
    <polyline class="cls-2" points="46 84 46 117 37 126 23 126 14 117 14 84"/>
    <polyline class="cls-2" points="74 84 74 117 83 126 97 126 106 117 106 84"/>
    <line class="cls-2" x1="14" y1="116.1" x2="46" y2="116.1"/>
    <line class="cls-2" x1="74" y1="116.1" x2="106" y2="116.1"/>
    <line class="cls-2" x1="2" y1="19" x2="118" y2="19"/>
    <line class="cls-2" x1="11" y1="84" x2="11" y2="19"/>
    <line class="cls-2" x1="109" y1="84" x2="109" y2="19"/>
    <circle class="cls-2" cx="26" cy="70" r="4"/>
    <circle class="cls-2" cx="94" cy="70" r="4"/>
  </g>
</svg>
